<mxfile host="app.diagrams.net" modified="2023-02-14T18:07:35.966Z" agent="5.0 (Macintosh; Intel Mac OS X 10_15_7) AppleWebKit/605.1.15 (KHTML, like Gecko) Version/16.1 Safari/605.1.15" etag="9Knf1uwjqszrEgOb_fCV" version="20.8.20" type="github">
  <diagram id="R2lEEEUBdFMjLlhIrx00" name="Page-1">
    <mxGraphModel dx="1405" dy="1861" grid="1" gridSize="10" guides="1" tooltips="1" connect="1" arrows="1" fold="1" page="1" pageScale="1" pageWidth="850" pageHeight="1100" math="0" shadow="0" extFonts="Permanent Marker^https://fonts.googleapis.com/css?family=Permanent+Marker">
      <root>
        <mxCell id="0" />
        <mxCell id="1" parent="0" />
        <mxCell id="bkdPCyFF_JCRdizK2mb8-16" style="edgeStyle=orthogonalEdgeStyle;curved=1;rounded=0;orthogonalLoop=1;jettySize=auto;html=1;exitX=1;exitY=0.25;exitDx=0;exitDy=0;strokeWidth=1;endArrow=none;endFill=0;" parent="1" source="bkdPCyFF_JCRdizK2mb8-1" target="bkdPCyFF_JCRdizK2mb8-15" edge="1">
          <mxGeometry relative="1" as="geometry">
            <Array as="points">
              <mxPoint x="280" y="130" />
              <mxPoint x="400" y="130" />
            </Array>
          </mxGeometry>
        </mxCell>
        <mxCell id="JjR6LY6D7as-J1LcovHU-7" style="edgeStyle=orthogonalEdgeStyle;curved=1;rounded=0;orthogonalLoop=1;jettySize=auto;html=1;exitX=1;exitY=0.5;exitDx=0;exitDy=0;entryX=0;entryY=0.5;entryDx=0;entryDy=0;strokeWidth=1;endArrow=none;endFill=0;" edge="1" parent="1" source="bkdPCyFF_JCRdizK2mb8-1" target="JjR6LY6D7as-J1LcovHU-6">
          <mxGeometry relative="1" as="geometry" />
        </mxCell>
        <mxCell id="bkdPCyFF_JCRdizK2mb8-1" value="Equipo" style="rounded=0;whiteSpace=wrap;html=1;" parent="1" vertex="1">
          <mxGeometry x="160" y="180" width="120" height="60" as="geometry" />
        </mxCell>
        <mxCell id="bkdPCyFF_JCRdizK2mb8-2" value="Estadios" style="rounded=0;whiteSpace=wrap;html=1;" parent="1" vertex="1">
          <mxGeometry x="305" y="420" width="120" height="60" as="geometry" />
        </mxCell>
        <mxCell id="bkdPCyFF_JCRdizK2mb8-3" value="Temporada" style="rounded=0;whiteSpace=wrap;html=1;" parent="1" vertex="1">
          <mxGeometry x="680" y="70" width="120" height="60" as="geometry" />
        </mxCell>
        <mxCell id="bkdPCyFF_JCRdizK2mb8-5" style="rounded=0;orthogonalLoop=1;jettySize=auto;html=1;edgeStyle=orthogonalEdgeStyle;curved=1;strokeWidth=1;endArrow=none;endFill=0;" parent="1" source="bkdPCyFF_JCRdizK2mb8-4" target="bkdPCyFF_JCRdizK2mb8-1" edge="1">
          <mxGeometry relative="1" as="geometry">
            <Array as="points">
              <mxPoint x="110" y="40" />
              <mxPoint x="220" y="40" />
            </Array>
          </mxGeometry>
        </mxCell>
        <mxCell id="bkdPCyFF_JCRdizK2mb8-4" value="Nombre Oficial" style="ellipse;whiteSpace=wrap;html=1;" parent="1" vertex="1">
          <mxGeometry x="50" y="-60" width="120" height="80" as="geometry" />
        </mxCell>
        <mxCell id="bkdPCyFF_JCRdizK2mb8-8" style="edgeStyle=orthogonalEdgeStyle;curved=1;rounded=0;orthogonalLoop=1;jettySize=auto;html=1;entryX=0.75;entryY=0;entryDx=0;entryDy=0;strokeWidth=1;endArrow=none;endFill=0;" parent="1" source="bkdPCyFF_JCRdizK2mb8-7" target="bkdPCyFF_JCRdizK2mb8-1" edge="1">
          <mxGeometry relative="1" as="geometry" />
        </mxCell>
        <mxCell id="bkdPCyFF_JCRdizK2mb8-7" value="Nombre corto" style="ellipse;whiteSpace=wrap;html=1;" parent="1" vertex="1">
          <mxGeometry x="185" y="-70" width="120" height="70" as="geometry" />
        </mxCell>
        <mxCell id="JjR6LY6D7as-J1LcovHU-14" style="edgeStyle=orthogonalEdgeStyle;curved=1;rounded=0;orthogonalLoop=1;jettySize=auto;html=1;exitX=1;exitY=0.5;exitDx=0;exitDy=0;entryX=0.25;entryY=0;entryDx=0;entryDy=0;strokeWidth=1;endArrow=none;endFill=0;" edge="1" parent="1" source="bkdPCyFF_JCRdizK2mb8-9" target="bkdPCyFF_JCRdizK2mb8-1">
          <mxGeometry relative="1" as="geometry" />
        </mxCell>
        <mxCell id="bkdPCyFF_JCRdizK2mb8-9" value="Nombre histórico" style="ellipse;whiteSpace=wrap;html=1;" parent="1" vertex="1">
          <mxGeometry y="40" width="120" height="80" as="geometry" />
        </mxCell>
        <mxCell id="JjR6LY6D7as-J1LcovHU-15" style="edgeStyle=orthogonalEdgeStyle;curved=1;rounded=0;orthogonalLoop=1;jettySize=auto;html=1;exitX=1;exitY=0.5;exitDx=0;exitDy=0;entryX=0;entryY=0;entryDx=0;entryDy=0;strokeWidth=1;endArrow=none;endFill=0;" edge="1" parent="1" source="bkdPCyFF_JCRdizK2mb8-11" target="bkdPCyFF_JCRdizK2mb8-1">
          <mxGeometry relative="1" as="geometry" />
        </mxCell>
        <mxCell id="bkdPCyFF_JCRdizK2mb8-11" value="Otros nombres" style="ellipse;whiteSpace=wrap;html=1;" parent="1" vertex="1">
          <mxGeometry x="10" y="130" width="120" height="80" as="geometry" />
        </mxCell>
        <mxCell id="JjR6LY6D7as-J1LcovHU-16" style="edgeStyle=orthogonalEdgeStyle;curved=1;rounded=0;orthogonalLoop=1;jettySize=auto;html=1;entryX=0;entryY=0.5;entryDx=0;entryDy=0;strokeWidth=1;endArrow=none;endFill=0;" edge="1" parent="1" source="bkdPCyFF_JCRdizK2mb8-13" target="bkdPCyFF_JCRdizK2mb8-1">
          <mxGeometry relative="1" as="geometry" />
        </mxCell>
        <mxCell id="bkdPCyFF_JCRdizK2mb8-13" value="Ciudad" style="ellipse;whiteSpace=wrap;html=1;" parent="1" vertex="1">
          <mxGeometry y="240" width="110" height="70" as="geometry" />
        </mxCell>
        <mxCell id="bkdPCyFF_JCRdizK2mb8-15" value="Fecha fundación" style="ellipse;whiteSpace=wrap;html=1;" parent="1" vertex="1">
          <mxGeometry x="340" y="-90" width="120" height="80" as="geometry" />
        </mxCell>
        <mxCell id="bkdPCyFF_JCRdizK2mb8-22" style="edgeStyle=orthogonalEdgeStyle;curved=1;rounded=0;orthogonalLoop=1;jettySize=auto;html=1;exitX=0.5;exitY=0;exitDx=0;exitDy=0;entryX=0.425;entryY=1.033;entryDx=0;entryDy=0;entryPerimeter=0;strokeWidth=1;endArrow=none;endFill=0;" parent="1" source="bkdPCyFF_JCRdizK2mb8-17" target="bkdPCyFF_JCRdizK2mb8-2" edge="1">
          <mxGeometry relative="1" as="geometry">
            <Array as="points">
              <mxPoint x="356" y="590" />
            </Array>
          </mxGeometry>
        </mxCell>
        <mxCell id="bkdPCyFF_JCRdizK2mb8-17" value="Nombre" style="ellipse;whiteSpace=wrap;html=1;" parent="1" vertex="1">
          <mxGeometry x="300" y="590" width="120" height="80" as="geometry" />
        </mxCell>
        <mxCell id="bkdPCyFF_JCRdizK2mb8-21" style="edgeStyle=orthogonalEdgeStyle;curved=1;rounded=0;orthogonalLoop=1;jettySize=auto;html=1;exitX=0.5;exitY=0;exitDx=0;exitDy=0;entryX=0;entryY=0.5;entryDx=0;entryDy=0;strokeWidth=1;endArrow=none;endFill=0;" parent="1" source="bkdPCyFF_JCRdizK2mb8-18" target="bkdPCyFF_JCRdizK2mb8-2" edge="1">
          <mxGeometry relative="1" as="geometry">
            <Array as="points">
              <mxPoint x="280" y="590" />
              <mxPoint x="280" y="450" />
            </Array>
          </mxGeometry>
        </mxCell>
        <mxCell id="bkdPCyFF_JCRdizK2mb8-18" value="Fecha de inaguración" style="ellipse;whiteSpace=wrap;html=1;" parent="1" vertex="1">
          <mxGeometry x="160" y="590" width="120" height="80" as="geometry" />
        </mxCell>
        <mxCell id="bkdPCyFF_JCRdizK2mb8-23" style="edgeStyle=orthogonalEdgeStyle;curved=1;rounded=0;orthogonalLoop=1;jettySize=auto;html=1;exitX=0;exitY=0;exitDx=0;exitDy=0;entryX=1;entryY=0.5;entryDx=0;entryDy=0;strokeWidth=1;endArrow=none;endFill=0;" parent="1" source="bkdPCyFF_JCRdizK2mb8-19" target="bkdPCyFF_JCRdizK2mb8-2" edge="1">
          <mxGeometry relative="1" as="geometry" />
        </mxCell>
        <mxCell id="bkdPCyFF_JCRdizK2mb8-19" value="Capacidad" style="ellipse;whiteSpace=wrap;html=1;" parent="1" vertex="1">
          <mxGeometry x="470" y="580" width="120" height="80" as="geometry" />
        </mxCell>
        <mxCell id="JjR6LY6D7as-J1LcovHU-3" style="edgeStyle=orthogonalEdgeStyle;curved=1;rounded=0;orthogonalLoop=1;jettySize=auto;html=1;exitX=0.5;exitY=1;exitDx=0;exitDy=0;entryX=0.5;entryY=0;entryDx=0;entryDy=0;strokeWidth=1;endArrow=none;endFill=0;" edge="1" parent="1" source="JjR6LY6D7as-J1LcovHU-1" target="bkdPCyFF_JCRdizK2mb8-2">
          <mxGeometry relative="1" as="geometry" />
        </mxCell>
        <mxCell id="JjR6LY6D7as-J1LcovHU-17" style="edgeStyle=orthogonalEdgeStyle;curved=1;rounded=0;orthogonalLoop=1;jettySize=auto;html=1;exitX=0.5;exitY=0;exitDx=0;exitDy=0;entryX=0.5;entryY=1;entryDx=0;entryDy=0;strokeWidth=1;endArrow=none;endFill=0;" edge="1" parent="1" source="JjR6LY6D7as-J1LcovHU-1" target="bkdPCyFF_JCRdizK2mb8-1">
          <mxGeometry relative="1" as="geometry" />
        </mxCell>
        <mxCell id="JjR6LY6D7as-J1LcovHU-1" value="Sede" style="rhombus;whiteSpace=wrap;html=1;" vertex="1" parent="1">
          <mxGeometry x="190" y="310" width="80" height="80" as="geometry" />
        </mxCell>
        <mxCell id="JjR6LY6D7as-J1LcovHU-4" value="(1,1)" style="text;html=1;strokeColor=none;fillColor=none;align=center;verticalAlign=middle;whiteSpace=wrap;rounded=0;" vertex="1" parent="1">
          <mxGeometry x="160" y="240" width="60" height="30" as="geometry" />
        </mxCell>
        <mxCell id="JjR6LY6D7as-J1LcovHU-5" value="(0,N)" style="text;html=1;strokeColor=none;fillColor=none;align=center;verticalAlign=middle;whiteSpace=wrap;rounded=0;" vertex="1" parent="1">
          <mxGeometry x="320" y="395" width="60" height="30" as="geometry" />
        </mxCell>
        <mxCell id="JjR6LY6D7as-J1LcovHU-8" style="edgeStyle=orthogonalEdgeStyle;curved=1;rounded=0;orthogonalLoop=1;jettySize=auto;html=1;exitX=1;exitY=0.5;exitDx=0;exitDy=0;entryX=0;entryY=0.5;entryDx=0;entryDy=0;strokeWidth=1;endArrow=none;endFill=0;" edge="1" parent="1" source="JjR6LY6D7as-J1LcovHU-6" target="bkdPCyFF_JCRdizK2mb8-3">
          <mxGeometry relative="1" as="geometry" />
        </mxCell>
        <mxCell id="JjR6LY6D7as-J1LcovHU-6" value="Pertenece" style="rhombus;whiteSpace=wrap;html=1;" vertex="1" parent="1">
          <mxGeometry x="510" y="60" width="80" height="80" as="geometry" />
        </mxCell>
        <mxCell id="JjR6LY6D7as-J1LcovHU-9" value="(1,N)" style="text;html=1;strokeColor=none;fillColor=none;align=center;verticalAlign=middle;whiteSpace=wrap;rounded=0;" vertex="1" parent="1">
          <mxGeometry x="290" y="170" width="60" height="30" as="geometry" />
        </mxCell>
        <mxCell id="JjR6LY6D7as-J1LcovHU-11" value="Text" style="text;html=1;strokeColor=none;fillColor=none;align=center;verticalAlign=middle;whiteSpace=wrap;rounded=0;" vertex="1" parent="1">
          <mxGeometry x="620" y="65" width="60" height="30" as="geometry" />
        </mxCell>
        <mxCell id="JjR6LY6D7as-J1LcovHU-13" value="División" style="rounded=0;whiteSpace=wrap;html=1;" vertex="1" parent="1">
          <mxGeometry x="680" y="470" width="120" height="60" as="geometry" />
        </mxCell>
        <mxCell id="JjR6LY6D7as-J1LcovHU-33" style="edgeStyle=orthogonalEdgeStyle;curved=1;rounded=0;orthogonalLoop=1;jettySize=auto;html=1;exitX=0;exitY=0.5;exitDx=0;exitDy=0;entryX=1;entryY=0;entryDx=0;entryDy=0;strokeWidth=1;endArrow=none;endFill=0;" edge="1" parent="1" source="JjR6LY6D7as-J1LcovHU-19" target="JjR6LY6D7as-J1LcovHU-32">
          <mxGeometry relative="1" as="geometry" />
        </mxCell>
        <mxCell id="JjR6LY6D7as-J1LcovHU-19" value="Número" style="ellipse;whiteSpace=wrap;html=1;" vertex="1" parent="1">
          <mxGeometry x="730" y="192.5" width="60" height="35" as="geometry" />
        </mxCell>
        <mxCell id="JjR6LY6D7as-J1LcovHU-27" value="Goles&lt;br&gt;local" style="ellipse;whiteSpace=wrap;html=1;" vertex="1" parent="1">
          <mxGeometry x="725" y="240" width="70" height="40" as="geometry" />
        </mxCell>
        <mxCell id="JjR6LY6D7as-J1LcovHU-35" style="edgeStyle=orthogonalEdgeStyle;curved=1;rounded=0;orthogonalLoop=1;jettySize=auto;html=1;exitX=0;exitY=0.5;exitDx=0;exitDy=0;entryX=1;entryY=1;entryDx=0;entryDy=0;strokeWidth=1;endArrow=none;endFill=0;" edge="1" parent="1" source="JjR6LY6D7as-J1LcovHU-28" target="JjR6LY6D7as-J1LcovHU-32">
          <mxGeometry relative="1" as="geometry" />
        </mxCell>
        <mxCell id="JjR6LY6D7as-J1LcovHU-28" value="Goles&lt;br&gt;visitante" style="ellipse;whiteSpace=wrap;html=1;" vertex="1" parent="1">
          <mxGeometry x="725" y="290" width="70" height="40" as="geometry" />
        </mxCell>
        <mxCell id="JjR6LY6D7as-J1LcovHU-45" style="edgeStyle=orthogonalEdgeStyle;curved=1;rounded=0;orthogonalLoop=1;jettySize=auto;html=1;exitX=1;exitY=0.5;exitDx=0;exitDy=0;entryX=0;entryY=0.5;entryDx=0;entryDy=0;strokeWidth=1;endArrow=none;endFill=0;" edge="1" parent="1" source="JjR6LY6D7as-J1LcovHU-32" target="JjR6LY6D7as-J1LcovHU-27">
          <mxGeometry relative="1" as="geometry" />
        </mxCell>
        <mxCell id="JjR6LY6D7as-J1LcovHU-32" value="Jornada" style="rounded=0;whiteSpace=wrap;html=1;" vertex="1" parent="1">
          <mxGeometry x="570" y="245" width="120" height="60" as="geometry" />
        </mxCell>
        <mxCell id="JjR6LY6D7as-J1LcovHU-38" style="edgeStyle=orthogonalEdgeStyle;curved=1;rounded=0;orthogonalLoop=1;jettySize=auto;html=1;entryX=0;entryY=0.5;entryDx=0;entryDy=0;strokeWidth=1;endArrow=none;endFill=0;" edge="1" parent="1" source="JjR6LY6D7as-J1LcovHU-36" target="JjR6LY6D7as-J1LcovHU-32">
          <mxGeometry relative="1" as="geometry" />
        </mxCell>
        <mxCell id="JjR6LY6D7as-J1LcovHU-41" style="edgeStyle=orthogonalEdgeStyle;curved=1;rounded=0;orthogonalLoop=1;jettySize=auto;html=1;exitX=0;exitY=0.5;exitDx=0;exitDy=0;strokeWidth=1;endArrow=none;endFill=0;" edge="1" parent="1" source="JjR6LY6D7as-J1LcovHU-36">
          <mxGeometry relative="1" as="geometry">
            <mxPoint x="280" y="240.17647058823513" as="targetPoint" />
          </mxGeometry>
        </mxCell>
        <mxCell id="JjR6LY6D7as-J1LcovHU-36" value="Local" style="rhombus;whiteSpace=wrap;html=1;" vertex="1" parent="1">
          <mxGeometry x="425" y="200" width="80" height="80" as="geometry" />
        </mxCell>
        <mxCell id="JjR6LY6D7as-J1LcovHU-40" style="edgeStyle=orthogonalEdgeStyle;curved=1;rounded=0;orthogonalLoop=1;jettySize=auto;html=1;entryX=1;entryY=1;entryDx=0;entryDy=0;strokeWidth=1;endArrow=none;endFill=0;" edge="1" parent="1" source="JjR6LY6D7as-J1LcovHU-37" target="bkdPCyFF_JCRdizK2mb8-1">
          <mxGeometry relative="1" as="geometry" />
        </mxCell>
        <mxCell id="JjR6LY6D7as-J1LcovHU-44" style="edgeStyle=orthogonalEdgeStyle;curved=1;rounded=0;orthogonalLoop=1;jettySize=auto;html=1;exitX=1;exitY=0.5;exitDx=0;exitDy=0;strokeWidth=1;endArrow=none;endFill=0;" edge="1" parent="1" source="JjR6LY6D7as-J1LcovHU-37">
          <mxGeometry relative="1" as="geometry">
            <mxPoint x="570" y="270" as="targetPoint" />
            <Array as="points">
              <mxPoint x="520" y="355" />
              <mxPoint x="520" y="270" />
            </Array>
          </mxGeometry>
        </mxCell>
        <mxCell id="JjR6LY6D7as-J1LcovHU-37" value="Visitante" style="rhombus;whiteSpace=wrap;html=1;" vertex="1" parent="1">
          <mxGeometry x="420" y="315" width="80" height="80" as="geometry" />
        </mxCell>
        <mxCell id="JjR6LY6D7as-J1LcovHU-43" value="" style="endArrow=none;html=1;rounded=0;strokeWidth=1;curved=1;" edge="1" parent="1">
          <mxGeometry width="50" height="50" relative="1" as="geometry">
            <mxPoint x="280" y="330" as="sourcePoint" />
            <mxPoint x="380" y="210" as="targetPoint" />
            <Array as="points">
              <mxPoint x="380" y="330" />
            </Array>
          </mxGeometry>
        </mxCell>
      </root>
    </mxGraphModel>
  </diagram>
</mxfile>
